<svg xmlns="http://www.w3.org/2000/svg" width="23.297" height="18.929" viewBox="0 0 23.297 18.929">
  <path id="brands-and-logotypes_1_" data-name="brands-and-logotypes (1)" d="M23.3,50.241A9.958,9.958,0,0,1,20.545,51a4.749,4.749,0,0,0,2.1-2.64,9.545,9.545,0,0,1-3.029,1.156,4.776,4.776,0,0,0-8.262,3.266,4.918,4.918,0,0,0,.111,1.089,13.519,13.519,0,0,1-9.845-5A4.777,4.777,0,0,0,3.09,55.254a4.717,4.717,0,0,1-2.158-.588v.052a4.8,4.8,0,0,0,3.827,4.693,4.767,4.767,0,0,1-1.252.157,4.223,4.223,0,0,1-.9-.082,4.822,4.822,0,0,0,4.463,3.327,9.6,9.6,0,0,1-5.922,2.037A8.946,8.946,0,0,1,0,64.786a13.446,13.446,0,0,0,7.327,2.143A13.5,13.5,0,0,0,20.921,53.338c0-.211-.007-.415-.017-.617A9.528,9.528,0,0,0,23.3,50.241Z" transform="translate(0 -48)" fill="#fff"/>
</svg>
