<svg xmlns="http://www.w3.org/2000/svg" width="22" height="22" viewBox="0 0 22 22">
  <path id="seo-and-web" d="M18.777,3.223a11,11,0,1,0,0,15.553A10.992,10.992,0,0,0,18.777,3.223Zm-.46,13.985a11.023,11.023,0,0,0-1.643-1.217,17.786,17.786,0,0,0,.663-4.291h3.233A9.509,9.509,0,0,1,18.317,17.208ZM1.429,11.7H4.663a17.786,17.786,0,0,0,.663,4.291,11.024,11.024,0,0,0-1.643,1.217A9.509,9.509,0,0,1,1.429,11.7Zm2.254-6.91A11.024,11.024,0,0,0,5.326,6.007,17.786,17.786,0,0,0,4.663,10.3H1.429A9.509,9.509,0,0,1,3.683,4.791ZM10.3,6.152a9.521,9.521,0,0,1-3.267-.828c.594-1.53,1.69-3.365,3.267-3.82Zm0,1.4V10.3H6.065A16.512,16.512,0,0,1,6.6,6.665,10.924,10.924,0,0,0,10.3,7.556Zm0,4.144v2.742a10.924,10.924,0,0,0-3.7.891A16.512,16.512,0,0,1,6.065,11.7Zm0,4.147v4.648c-1.577-.455-2.672-2.29-3.267-3.82A9.521,9.521,0,0,1,10.3,15.847Zm1.4,0a9.521,9.521,0,0,1,3.267.828c-.594,1.53-1.69,3.365-3.267,3.82Zm0-1.4V11.7h4.234a16.512,16.512,0,0,1-.531,3.634,10.924,10.924,0,0,0-3.7-.891Zm0-4.144V7.556a10.924,10.924,0,0,0,3.7-.891,16.512,16.512,0,0,1,.531,3.634Zm0-4.147V1.5c1.577.455,2.673,2.29,3.267,3.82A9.522,9.522,0,0,1,11.7,6.152ZM14.849,2.2a9.554,9.554,0,0,1,2.484,1.586,9.633,9.633,0,0,1-1.127.856A10.552,10.552,0,0,0,14.849,2.2ZM5.794,4.646a9.636,9.636,0,0,1-1.127-.856A9.554,9.554,0,0,1,7.151,2.2,10.555,10.555,0,0,0,5.794,4.646Zm0,12.707A10.552,10.552,0,0,0,7.151,19.8a9.554,9.554,0,0,1-2.484-1.586A9.633,9.633,0,0,1,5.795,17.353Zm10.411,0a9.637,9.637,0,0,1,1.127.856,9.554,9.554,0,0,1-2.484,1.586,10.551,10.551,0,0,0,1.357-2.442ZM17.338,10.3a17.786,17.786,0,0,0-.663-4.291,11.026,11.026,0,0,0,1.643-1.217A9.509,9.509,0,0,1,20.571,10.3Z" transform="translate(0 0)" fill="#fff"/>
</svg>
