<svg id="Group_855" data-name="Group 855" xmlns="http://www.w3.org/2000/svg" width="45.564" height="45.564" viewBox="0 0 45.564 45.564">
  <g id="Group_1" data-name="Group 1">
    <circle id="Ellipse_1" data-name="Ellipse 1" cx="16.109" cy="16.109" r="16.109" transform="translate(0 22.782) rotate(-45)" fill="#f47933"/>
    <path id="Path_1" data-name="Path 1" d="M2651.554,2160.771a16.11,16.11,0,0,1,0-22.782l-2.071,2.071a16.11,16.11,0,0,0,22.782,22.782l2.071-2.071A16.11,16.11,0,0,1,2651.554,2160.771Z" transform="translate(-2640.163 -2126.598)" fill="#8b451c"/>
    <circle id="Ellipse_2" data-name="Ellipse 2" cx="11.424" cy="11.424" r="11.424" transform="translate(11.358 11.358)" fill="#fff5d4"/>
    <circle id="Ellipse_3" data-name="Ellipse 3" cx="5.147" cy="5.147" r="5.147" transform="translate(17.635 17.635)" fill="#f47933"/>
    <path id="Path_2" data-name="Path 2" d="M2913.993,2138.914l-1.894,1.894.355,4.5,1.894-1.894Z" transform="translate(-2884.711 -2127.444)" fill="#0a3456"/>
    <path id="Path_3" data-name="Path 3" d="M2936.209,2116.7l-1.894,1.894.355,4.5,1.894-1.894Z" transform="translate(-2905.034 -2107.122)" fill="#bebebe"/>
    <path id="Path_4" data-name="Path 4" d="M2958.426,2094.481l-1.894,1.894.355,4.5,1.894-1.894Z" transform="translate(-2925.357 -2086.799)" fill="#0a3456"/>
    <path id="Path_5" data-name="Path 5" d="M2980.641,2072.266l-1.894,1.894.355,4.5,1.894-1.893Z" transform="translate(-2945.678 -2066.477)" fill="#bebebe"/>
    <path id="Path_6" data-name="Path 6" d="M2982.684,2126.692l1.893-1.894,4.5.355-1.894,1.894Z" transform="translate(-2949.279 -2114.532)" fill="#0a3456"/>
    <path id="Path_7" data-name="Path 7" d="M2960.467,2148.908l1.894-1.894,4.5.355-1.894,1.894Z" transform="translate(-2928.956 -2134.854)" fill="#bebebe"/>
    <path id="Path_8" data-name="Path 8" d="M2938.251,2171.124l1.894-1.894,4.5.355-1.894,1.894Z" transform="translate(-2908.633 -2155.177)" fill="#0a3456"/>
    <path id="Path_9" data-name="Path 9" d="M2916.035,2193.34l1.894-1.894,4.5.355-1.894,1.894Z" transform="translate(-2888.311 -2175.499)" fill="#bebebe"/>
    <path id="Path_10" data-name="Path 10" d="M2850.472,2104.918a.837.837,0,0,1-.592-1.428l14.646-14.646a.837.837,0,0,1,1.184,1.184l-14.646,14.646A.835.835,0,0,1,2850.472,2104.918Z" transform="translate(-2827.571 -2081.418)" fill="#2f2f36"/>
  </g>
</svg>
